<svg version="1.1" id="Layer_1" xmlns="http://www.w3.org/2000/svg" xmlns:xlink="http://www.w3.org/1999/xlink" x="0px" y="0px"
	 width="100%" viewBox="0 0 496 496" enable-background="new 0 0 496 496" xml:space="preserve">
<path fill="#000000" opacity="1.000000" stroke="none" 
	d="
M352.917725,344.263184 
	C355.425293,346.474731 356.099609,348.620026 353.782043,350.925720 
	C351.479218,353.216766 349.268890,352.290894 347.165283,350.492767 
	C341.221313,345.412170 335.439941,340.145447 329.471191,335.088196 
	C323.971222,330.428131 317.855194,329.815887 311.414093,329.356903 
	C307.605743,329.085571 303.768616,329.498291 299.989349,328.472382 
	C298.022400,327.938446 296.565765,327.132294 296.262695,325.021790 
	C295.916443,322.610596 297.461273,321.367218 299.356964,320.438690 
	C301.913544,319.186493 304.553650,319.611023 307.183258,320.146606 
	C309.618042,320.642487 312.074341,321.343018 314.168701,319.083649 
	C313.769165,316.578278 312.045868,314.935822 310.483887,313.272919 
	C298.214783,300.210815 288.934967,284.921753 279.792999,269.756500 
	C275.107086,261.983246 271.708984,253.026016 268.574036,244.277084 
	C267.257324,240.602463 265.328918,238.670212 261.586365,238.434158 
	C256.086975,238.087341 250.732224,237.063354 245.389755,235.677124 
	C239.354660,234.111160 236.243317,237.382797 237.837433,243.294174 
	C240.922852,254.735596 241.331696,266.588959 243.201294,278.218811 
	C245.151718,290.351471 247.537979,302.373962 250.204559,314.352692 
	C250.946579,317.685944 253.082169,319.940796 256.367218,320.990601 
	C265.550751,323.925293 273.237396,330.452637 283.010529,332.029572 
	C284.618439,332.289001 286.235962,333.410950 286.104370,335.437225 
	C285.975800,337.416595 284.794342,338.803131 282.864624,339.460480 
	C280.872345,340.139252 278.971313,339.912445 277.029327,339.115601 
	C274.509216,338.081543 271.916168,337.225189 269.007385,336.949310 
	C276.573822,343.690430 283.281830,351.375519 293.047302,354.997711 
	C296.637817,356.329437 300.250458,357.601562 303.853485,358.899506 
	C305.913055,359.641449 307.821106,360.623260 309.352692,362.242157 
	C311.132111,364.122986 311.971313,366.153778 310.235474,368.485748 
	C308.469330,370.858398 306.503632,370.270294 304.078217,369.235077 
	C289.432678,362.984222 276.603668,353.823578 263.838043,344.537323 
	C263.052979,343.966248 262.179230,343.517029 260.977386,342.786652 
	C259.833954,346.217834 260.158234,349.192047 261.594696,352.076599 
	C262.727631,354.351685 263.532135,356.658539 263.328308,359.259064 
	C263.094849,362.237183 261.888702,364.653656 258.718170,364.808899 
	C255.745667,364.954437 255.220963,362.351715 254.667831,359.993866 
	C253.233078,353.878052 253.032745,347.390961 249.410385,341.916931 
	C242.226807,331.061249 233.219772,322.983643 219.387436,322.276245 
	C217.780945,322.194092 216.430008,321.596252 215.971497,319.889099 
	C215.453934,317.962036 216.461441,316.610931 217.992615,315.737701 
	C222.122406,313.382477 226.439209,312.903381 230.929016,314.739166 
	C234.129669,316.047791 237.355438,317.295013 240.793335,318.658234 
	C242.707306,314.746704 241.024338,311.364471 240.299103,308.175995 
	C236.426987,291.152130 234.107513,273.845276 230.641296,256.754059 
	C229.279739,250.040573 228.140854,243.356277 228.641861,236.481583 
	C228.952576,232.217987 225.882507,231.839249 222.802994,231.284836 
	C204.531021,227.995255 186.222290,224.879517 168.034164,221.173935 
	C162.900314,220.127975 159.620132,220.996445 155.160065,224.075668 
	C139.034760,235.208572 124.234352,248.156693 107.355942,258.268372 
	C95.443962,265.404694 83.599113,272.476929 71.100433,278.655579 
	C62.862545,282.727936 54.683907,286.346771 45.881756,288.616730 
	C40.937119,289.891937 35.943344,288.217621 31.022390,287.708069 
	C27.613380,287.355103 25.202557,284.598633 26.181114,280.871979 
	C27.048580,277.568359 29.640867,276.319977 33.234406,277.137726 
	C42.731190,279.298798 51.755920,277.035980 60.525009,273.618011 
	C79.876907,266.075165 97.523727,255.422775 114.291840,243.309341 
	C124.526779,235.915512 134.455826,228.097885 144.505569,220.448685 
	C145.542206,219.659668 146.763565,218.965012 147.055176,216.933029 
	C142.852829,214.197678 137.648102,214.434662 132.954453,213.675751 
	C117.229034,211.133163 101.431686,209.061401 85.407349,209.255341 
	C75.481766,209.375488 66.404793,211.980820 57.813961,216.717712 
	C55.372524,218.063889 52.635918,220.337921 50.442390,216.870087 
	C48.431244,213.690582 50.494724,210.970154 53.029625,209.174973 
	C60.137611,204.141205 68.570679,202.641647 76.829269,200.677780 
	C89.809181,197.591232 102.645477,199.950577 115.474762,201.621613 
	C129.127640,203.399933 142.738174,205.504288 156.363571,207.491211 
	C158.407242,207.789230 159.871902,206.772461 161.310516,205.585739 
	C171.454239,197.218079 181.836212,189.120834 191.694122,180.429138 
	C209.797897,164.467072 227.954330,148.533676 245.411102,131.878021 
	C261.402496,116.620483 276.291412,100.213554 292.071106,84.725670 
	C301.086884,75.876602 310.649323,67.530075 320.443512,59.543316 
	C330.858917,51.049988 341.075226,42.269890 352.384979,34.896561 
	C367.340851,25.146185 383.424255,19.658628 401.444183,21.777321 
	C409.620087,22.738596 415.951691,27.076178 420.329651,34.174286 
	C422.601349,37.857475 424.905731,41.515282 426.505707,45.551167 
	C427.700958,48.566116 429.808136,49.742718 433.071686,49.792793 
	C441.218262,49.917789 449.400848,49.014732 457.509338,50.594185 
	C460.627350,51.201538 464.345123,51.193195 464.152130,55.640045 
	C463.975677,59.705765 460.654083,61.738354 457.275757,61.561981 
	C444.636841,60.902149 434.136902,66.423080 423.608734,72.168434 
	C421.067810,73.555054 420.266968,75.722786 420.155670,78.348434 
	C419.940277,83.430084 420.845337,88.126198 423.515564,92.667755 
	C440.236023,121.106270 438.840057,149.741516 423.575256,178.157608 
	C415.557495,193.083115 403.029602,203.674026 388.627960,212.205444 
	C386.053955,213.730240 383.434082,215.216736 381.034729,216.990585 
	C370.309784,224.919403 357.207153,226.765167 345.134827,231.262344 
	C324.239838,239.046173 302.671997,240.204102 280.743652,238.464447 
	C279.961212,238.402374 279.153961,238.653442 278.418762,238.750580 
	C277.071960,241.981369 279.575409,244.014755 280.388184,246.363510 
	C283.702362,255.940872 287.440125,265.283691 293.740326,273.513550 
	C298.678619,279.964355 302.822235,287.041290 307.098480,293.975983 
	C311.225372,300.668488 317.536346,305.638184 321.381561,312.552582 
	C322.425903,314.430511 324.414703,314.654968 326.664642,314.321991 
	C338.318634,312.597351 349.880035,314.539978 361.459473,315.518036 
	C363.470490,315.687897 365.910828,316.108215 365.858093,318.627960 
	C365.802673,321.276855 363.236206,321.809692 361.101562,322.187500 
	C352.902802,323.638580 344.681519,322.251129 336.377777,322.499268 
	C350.690002,324.820496 362.778137,334.250214 377.618561,334.942566 
	C381.068176,335.103485 384.496826,336.209473 387.563019,338.038483 
	C390.059692,339.527802 391.181793,341.785370 389.812347,344.364838 
	C388.365570,347.089966 385.651123,347.984558 383.036194,346.128143 
	C379.046967,343.296082 374.646118,342.303131 369.921295,341.968842 
	C361.962891,341.405701 355.061707,337.538116 346.940765,334.160950 
	C349.154724,337.959442 350.910309,340.971527 352.917725,344.263184 
M257.906342,227.543793 
	C269.569244,229.724274 281.463898,228.997711 293.167694,229.268784 
	C312.580139,229.718430 331.750061,227.003479 350.299713,219.859802 
	C363.834076,214.647583 377.136658,209.397171 389.522125,201.726410 
	C404.035156,192.737961 413.294647,179.772186 419.771973,164.434586 
	C423.586792,155.401627 423.894684,145.926392 424.112213,136.216354 
	C424.399200,123.406181 422.577576,111.539787 415.455688,100.664581 
	C409.738373,91.934135 407.075256,77.403938 417.176025,67.519417 
	C419.614410,65.133209 422.429535,63.087910 425.032867,60.208889 
	C420.221741,58.483330 418.772614,54.868324 417.181915,50.554649 
	C413.881348,41.604145 408.687531,34.573982 397.853882,32.534782 
	C387.512115,30.588173 378.445068,32.856960 369.491089,37.032185 
	C358.014496,42.383701 347.831635,49.672092 338.179138,57.917763 
	C323.166809,70.742043 307.024658,82.215446 293.623169,96.940125 
	C288.076508,103.034424 281.915161,108.604042 276.143005,114.533592 
	C268.507629,122.377159 259.892548,129.219604 252.672745,137.538452 
	C249.115173,141.637604 245.068085,145.433090 240.749893,148.718567 
	C235.959854,152.363022 231.300278,156.076935 227.192017,160.473618 
	C214.910004,173.617920 200.539429,184.414398 187.073502,196.229874 
	C181.894836,200.773819 176.166245,204.800888 171.261093,211.387436 
	C200.636414,215.715714 228.707092,222.213287 257.906342,227.543793 
z"/>
<path fill="#000000" opacity="1.000000" stroke="none" 
	d="
M335.671112,463.188049 
	C326.341644,446.922577 327.582397,430.744019 336.133606,415.387238 
	C344.195282,400.909576 365.725830,401.556122 373.612488,416.174072 
	C382.025787,431.768066 381.464752,447.609253 372.105377,462.622284 
	C363.295013,476.754700 347.223206,476.924500 335.671112,463.188049 
M362.515686,418.950500 
	C356.181793,413.982666 349.415283,414.157074 345.677429,420.257690 
	C338.849579,431.401581 337.564880,443.436615 343.413422,455.339569 
	C348.161438,465.002686 357.762512,465.131073 363.780640,456.154785 
	C370.632202,445.935425 370.289124,429.789490 362.515686,418.950500 
z"/>
<path fill="#000000" opacity="1.000000" stroke="none" 
	d="
M314.376984,452.165161 
	C316.984772,462.975586 310.965057,471.503662 299.904297,473.199554 
	C289.272125,474.829742 288.637268,474.306641 288.666779,463.613647 
	C288.714081,446.470337 288.971802,429.324768 288.747345,412.185303 
	C288.681763,407.176178 290.575226,405.200562 295.229553,404.088409 
	C309.389557,400.704956 320.538086,406.156097 322.982452,418.437347 
	C324.754944,427.342804 322.435455,435.497131 315.885559,441.770874 
	C312.404785,445.104950 311.461548,447.892822 314.376984,452.165161 
M305.501373,437.036224 
	C308.747833,434.788086 311.009064,431.781708 312.227051,428.039001 
	C314.428131,421.275269 311.590973,415.132172 305.632904,413.627258 
	C301.316040,412.536896 299.446411,413.944061 299.365326,418.453308 
	C299.302765,421.933258 299.192017,425.424316 299.392303,428.893707 
	C299.594727,432.400269 298.415253,436.078125 300.189301,439.361206 
	C302.373199,439.655273 303.536743,438.294556 305.501373,437.036224 
M304.221069,458.672516 
	C305.035980,456.486481 304.436096,454.784393 302.403015,453.661407 
	C301.649445,453.245178 300.541962,453.144714 300.115570,453.848419 
	C298.564819,456.407806 299.202667,459.094452 299.706360,461.718475 
	C302.062469,462.080750 302.968994,460.679016 304.221069,458.672516 
z"/>
<path fill="#000000" opacity="1.000000" stroke="none" 
	d="
M457.314392,467.435120 
	C452.246277,470.853119 447.036774,472.804016 441.301025,473.535614 
	C438.173035,473.934509 436.689056,473.263275 436.646088,469.756226 
	C436.399658,449.638885 436.088562,429.521179 435.581360,409.409088 
	C435.469330,404.966064 437.274506,403.907166 441.407013,403.554871 
	C463.947571,401.633270 478.986847,422.691132 471.628418,447.139648 
	C469.169006,455.311066 464.642944,462.177734 457.314392,467.435120 
M453.458099,456.937836 
	C461.085876,449.766724 463.845703,440.775452 462.645020,430.637939 
	C461.783447,423.363434 457.804871,418.033936 450.874786,415.124695 
	C447.677124,413.782379 446.193817,414.592896 446.256348,418.226593 
	C446.393951,426.220001 446.249908,434.219727 446.476044,442.209625 
	C446.642670,448.097076 447.213409,453.973083 447.602203,459.825409 
	C450.241394,459.918488 451.544281,458.571930 453.458099,456.937836 
z"/>
<path fill="#000000" opacity="1.000000" stroke="none" 
	d="
M104.857452,436.035156 
	C108.198151,425.337585 111.549522,415.058319 114.582329,404.685913 
	C115.528656,401.449432 117.220284,400.489624 120.356819,400.754761 
	C123.515388,401.021759 125.913208,401.273926 126.632072,405.419250 
	C130.347931,426.846649 134.225647,448.250244 138.452545,469.581757 
	C139.486954,474.802063 136.872299,475.244202 133.145981,476.019653 
	C128.460907,476.994598 128.357941,473.713776 127.785751,470.832947 
	C126.976906,466.760681 126.263824,462.666565 125.630104,458.563202 
	C125.180519,455.652222 123.835701,454.356537 120.682968,454.251190 
	C110.331245,453.905273 110.331673,453.785248 107.080650,464.527313 
	C106.057060,467.909424 105.586731,471.514557 100.222801,469.516388 
	C96.487854,468.125031 95.200684,466.650116 96.579033,462.613220 
	C99.533356,453.960602 102.049583,445.158417 104.857452,436.035156 
M116.993301,432.467102 
	C116.228447,435.935211 114.287178,439.157593 114.647659,443.334778 
	C117.537872,442.788452 122.016319,446.219330 122.164078,440.582733 
	C122.284004,436.008240 120.510513,431.384094 119.331696,425.574036 
	C118.356590,428.404694 117.782249,430.071960 116.993301,432.467102 
z"/>
<path fill="#000000" opacity="1.000000" stroke="none" 
	d="
M268.810303,465.209656 
	C266.877502,461.571869 265.473236,457.911957 260.289368,456.525543 
	C260.289368,460.183624 260.047302,463.447083 260.346161,466.660248 
	C260.793213,471.466675 257.654541,471.528534 254.358063,471.740295 
	C250.874619,471.964050 249.683441,470.319672 249.701080,466.969238 
	C249.802795,447.662048 249.841415,428.354095 249.775146,409.046844 
	C249.761795,405.162720 251.294525,403.822052 255.157166,403.869690 
	C265.510620,403.997406 274.405579,406.666962 278.802948,417.068054 
	C282.960693,426.902344 282.289795,439.978638 273.535797,447.480774 
	C272.802979,448.108795 272.260986,448.959534 271.451294,449.918945 
	C274.333649,453.866852 277.566528,457.552460 278.949341,462.227509 
	C279.712860,464.808868 282.288483,467.956696 277.835449,469.802979 
	C273.160156,471.741394 270.784546,470.555054 268.810303,465.209656 
M260.574768,416.616943 
	C260.574768,425.321411 260.574768,434.025909 260.574768,442.924805 
	C271.307373,439.111359 274.313202,424.399048 266.308502,417.396088 
	C264.829376,416.102051 263.240784,414.652893 260.574768,416.616943 
z"/>
<path fill="#000000" opacity="1.000000" stroke="none" 
	d="
M186.340881,410.114441 
	C186.401474,416.595001 186.491379,422.591522 186.507690,428.588226 
	C186.516312,431.762421 187.614319,433.039520 191.090225,432.387604 
	C199.621124,430.787659 199.643295,430.923950 199.692657,421.867096 
	C199.713547,418.035370 199.893433,414.198181 199.743591,410.373535 
	C199.590057,406.454041 201.670364,405.637054 205.048172,405.672913 
	C208.265991,405.707092 210.464142,406.076843 210.384155,410.208740 
	C210.055405,427.191925 210.643692,444.187286 209.538391,461.164917 
	C209.321625,464.494202 208.428543,466.065948 204.822327,465.706116 
	C201.459747,465.370605 198.496201,465.273193 198.975281,460.497131 
	C199.456207,455.702850 199.379837,450.854950 199.644272,446.035828 
	C199.799072,443.214935 198.579269,442.251282 195.801392,442.257172 
	C188.807449,442.272064 187.224350,443.670654 187.315491,450.452515 
	C187.378113,455.113159 187.246277,459.798584 187.683792,464.427338 
	C188.562866,473.727325 187.830856,474.497955 177.988617,472.747681 
	C177.641602,469.077179 177.064957,465.309296 176.965714,461.528900 
	C176.511215,444.214142 176.256393,426.894043 175.770477,409.580353 
	C175.662735,405.741089 176.525085,403.797333 180.917923,403.668030 
	C185.590393,403.530518 186.851334,405.533447 186.340881,410.114441 
z"/>
<path fill="#000000" opacity="1.000000" stroke="none" 
	d="
M394.872345,472.911835 
	C392.629028,471.815887 390.582642,471.066467 388.706390,469.107330 
	C391.906219,462.596771 394.985352,455.991364 398.386871,449.556396 
	C400.051514,446.407318 399.871338,443.736633 398.316071,440.618805 
	C393.411041,430.785797 388.825806,420.793396 383.938904,410.951050 
	C382.338318,407.727386 383.268921,406.143738 386.374329,404.917358 
	C389.241516,403.785034 391.691528,402.153442 393.566650,406.512512 
	C396.590668,413.542511 400.075439,420.375336 403.407898,427.270966 
	C404.179962,428.868561 405.122650,430.383698 406.523651,432.901520 
	C409.903107,425.908264 413.046600,419.894562 415.726685,413.680939 
	C417.453857,409.676575 419.047455,407.826874 423.850098,410.088806 
	C428.633636,412.341797 427.146912,414.788971 425.568848,417.955200 
	C422.003540,425.108734 418.786041,432.444885 414.989105,439.470062 
	C412.876648,443.378571 412.726349,446.556549 414.906647,450.560303 
	C418.213928,456.633545 421.628174,462.731232 423.897797,469.269470 
	C423.223724,469.847565 422.890411,470.231537 422.474854,470.475220 
	C415.216309,474.731171 415.159698,474.707184 411.592804,467.251801 
	C410.104980,464.142029 408.589722,461.045380 406.530670,456.794159 
	C403.889862,461.990448 401.752045,466.195953 399.615143,470.401917 
	C398.695679,472.211700 397.895721,474.217834 394.872345,472.911835 
z"/>
<path fill="#000000" opacity="1.000000" stroke="none" 
	d="
M84.870560,441.812866 
	C84.325333,442.306396 84.049278,442.540131 83.737068,442.608368 
	C74.735497,444.575623 74.736694,444.572815 75.607437,454.132935 
	C75.743317,455.624695 75.967537,457.119751 75.953430,458.611450 
	C75.925217,461.593536 77.335747,462.868500 80.267593,462.645416 
	C81.260567,462.569855 82.264992,462.640015 83.264107,462.650726 
	C89.374207,462.716156 89.608459,463.130951 89.407631,469.261139 
	C89.304817,472.399292 87.878510,473.258331 85.055489,473.213013 
	C80.061775,473.132843 75.061356,473.130035 70.071022,473.303741 
	C66.938766,473.412750 65.693604,472.277893 65.472809,469.038605 
	C64.429474,453.732086 65.047035,438.407257 64.731773,423.094879 
	C64.625534,417.934601 64.727211,412.770264 64.698509,407.607971 
	C64.686081,405.372162 65.138184,403.715363 67.919075,403.652039 
	C73.405724,403.527191 78.890007,403.271790 84.372971,403.020264 
	C88.466507,402.832520 89.320480,405.104401 89.299622,408.692780 
	C89.279732,412.116211 88.354774,413.887238 84.576241,414.101135 
	C75.339859,414.623871 75.346031,414.757294 75.349709,424.107544 
	C75.350426,425.939301 75.390373,427.771362 75.369186,429.602783 
	C75.344818,431.708832 76.385345,432.482941 78.447617,432.586060 
	C80.675461,432.697510 83.405441,430.969208 85.043724,433.246521 
	C86.830711,435.730560 85.534637,438.711914 84.870560,441.812866 
z"/>
<path fill="#000000" opacity="1.000000" stroke="none" 
	d="
M218.056396,452.766113 
	C217.925522,437.800018 217.897171,423.309143 217.628601,408.822754 
	C217.558167,405.024200 218.639053,403.429626 222.689484,403.565735 
	C227.662735,403.732849 232.657394,403.237946 237.643631,403.051544 
	C241.550186,402.905487 242.189804,405.277863 242.220078,408.563080 
	C242.251160,411.939850 241.412415,413.795532 237.568924,414.006439 
	C228.320908,414.513763 228.328918,414.657684 228.338364,424.060089 
	C228.339371,425.059387 228.436661,426.070282 228.320709,427.055969 
	C227.823105,431.285919 229.151611,433.462585 233.858398,432.491241 
	C235.961853,432.057159 238.842514,431.695435 238.586716,434.965881 
	C238.363205,437.823242 240.186661,442.716156 234.949142,442.709869 
	C228.752594,442.702423 227.688873,445.789795 228.366943,450.831238 
	C228.455002,451.486023 228.383896,452.162079 228.388351,452.828278 
	C228.451309,462.229065 228.448105,462.425171 237.855011,462.581970 
	C241.907104,462.649536 242.415588,464.579132 242.411057,467.875885 
	C242.406509,471.170380 241.897369,473.369141 237.846115,473.204681 
	C233.192230,473.015717 228.514633,473.050507 223.862656,473.288177 
	C220.071564,473.481842 218.411743,472.275940 218.546219,468.205688 
	C218.710663,463.228821 218.256073,458.231476 218.056396,452.766113 
z"/>
<path fill="#000000" opacity="1.000000" stroke="none" 
	d="
M44.360184,465.916321 
	C44.307632,473.096130 43.985275,473.292206 38.473999,473.347656 
	C34.888332,473.383698 33.865288,471.730011 33.861370,468.499603 
	C33.836983,448.381989 33.771439,428.264191 33.625298,408.147156 
	C33.603199,405.105072 34.419270,403.575684 37.812679,403.598358 
	C42.954376,403.632782 48.101330,403.282959 53.241566,403.011566 
	C57.584808,402.782196 57.919029,405.521057 57.978409,408.845215 
	C58.040421,412.316864 56.864571,413.959625 53.126759,414.103027 
	C44.240097,414.443939 44.245220,414.586334 44.275208,423.463562 
	C44.280262,424.959900 44.406158,426.466614 44.274220,427.950562 
	C43.939919,431.710449 45.446514,433.157990 49.232944,432.414978 
	C51.819859,431.907349 54.458694,431.770203 54.316517,435.687164 
	C54.196709,438.987823 55.509483,443.314850 49.794937,443.010712 
	C45.349579,442.774078 44.014286,444.726288 44.259270,448.971161 
	C44.574894,454.440063 44.349205,459.940186 44.360184,465.916321 
z"/>
<path fill="#000000" opacity="1.000000" stroke="none" 
	d="
M160.158478,466.860352 
	C159.842468,472.972961 157.131653,474.822540 151.810577,473.197205 
	C149.029190,472.347595 149.691971,470.101593 149.693802,468.266174 
	C149.709137,452.803955 149.742935,437.340942 149.940414,421.880280 
	C149.997360,417.422394 150.335052,413.588470 143.800781,413.993713 
	C139.722382,414.246643 140.903366,410.404297 140.726273,407.953339 
	C140.555481,405.589905 140.965851,403.638336 144.079376,403.675537 
	C151.892395,403.768921 159.706558,403.768799 167.520279,403.799286 
	C171.110214,403.813293 171.360336,406.213074 171.244476,408.928925 
	C171.129288,411.628967 171.353104,414.212463 167.300507,414.424988 
	C160.419479,414.785767 160.397705,414.984070 160.358154,421.988281 
	C160.274612,436.785400 160.228180,451.582733 160.158478,466.860352 
z"/>
<path fill="#000000" opacity="1.000000" stroke="none" 
	d="
M382.985291,53.152771 
	C385.924042,43.056496 393.260498,39.177372 402.539520,42.556725 
	C406.452911,43.981953 409.649139,46.443039 410.186127,50.850037 
	C410.801392,55.899277 406.869965,61.935848 402.112335,63.984390 
	C392.287079,68.214966 385.165466,64.332932 382.985291,53.152771 
M395.902893,50.479595 
	C391.795563,52.615005 393.911163,55.086124 395.719513,57.254555 
	C397.171509,58.995682 399.049622,58.746342 400.402496,57.000172 
	C402.592194,54.173923 400.629883,52.435947 398.481354,50.917641 
	C397.980286,50.563541 397.225800,50.568035 395.902893,50.479595 
z"/>
</svg>