<svg version="1.1" id="Layer_1" xmlns="http://www.w3.org/2000/svg" xmlns:xlink="http://www.w3.org/1999/xlink" x="0px" y="0px"
	 width="100%" viewBox="0 0 496 496" enable-background="new 0 0 496 496" xml:space="preserve">
<path fill="#000000" opacity="1.000000" stroke="none" 
	d="
M247.417450,281.461456 
	C247.215134,280.970428 247.117554,280.692566 247.052231,280.699951 
	C240.820984,281.404694 236.749405,275.450073 230.733383,275.425262 
	C228.637894,275.416626 226.368576,275.451324 225.189911,273.110779 
	C225.760269,271.298370 227.437073,271.121307 228.708313,270.507599 
	C233.228180,268.325562 237.602585,265.880951 241.380508,262.580933 
	C243.725967,260.532166 247.883179,259.209534 246.955994,255.246353 
	C246.141541,251.764954 237.207230,248.840698 233.558640,250.561691 
	C226.141144,254.060425 219.932632,252.986969 214.273926,246.856644 
	C210.855621,243.153458 205.813248,241.657623 201.391571,239.463837 
	C193.292358,235.445435 187.292664,229.162201 182.967026,221.685318 
	C179.488937,215.673431 176.235031,208.744431 175.838181,202.047165 
	C175.617432,198.321991 173.033401,192.312119 178.339081,188.779327 
	C179.429352,188.053360 178.940994,186.292770 178.844955,184.964401 
	C178.693619,182.871078 178.379028,180.746735 179.332031,178.893311 
	C182.261475,178.609665 182.557007,182.248718 185.175339,181.846100 
	C187.537415,180.117386 185.686630,176.593033 188.216431,174.580597 
	C191.000854,175.869308 190.071198,183.832657 196.268295,178.761734 
	C198.812683,185.201752 200.012970,191.613998 203.485107,197.162872 
	C205.450043,200.303101 207.115555,201.146286 210.672119,199.233719 
	C220.268280,194.073273 229.362961,193.186508 237.645264,202.467453 
	C241.772766,207.092621 245.418930,206.585388 250.500778,202.938797 
	C256.633179,198.538391 260.273071,192.117523 264.541382,186.187134 
	C271.922333,175.932068 281.150116,167.034058 287.026764,155.676559 
	C288.970581,151.919907 290.762970,148.084915 292.979065,143.562347 
	C295.280731,147.349503 293.980011,151.579620 297.005890,154.416458 
	C301.327271,152.164215 301.914886,147.049286 305.235931,143.833298 
	C308.700226,148.150894 305.911865,153.585175 307.840973,157.797943 
	C310.341705,158.390274 310.927734,155.520218 313.259888,155.743469 
	C314.543671,159.504807 312.340637,163.421341 313.032623,166.888397 
	C314.760986,168.350616 316.310089,166.955231 318.073242,167.624481 
	C319.205017,172.643631 314.557861,175.738190 313.486420,179.750549 
	C314.042908,182.078796 316.431244,180.447128 317.214539,181.862122 
	C316.571838,185.337692 316.571838,185.337692 309.998444,193.119232 
	C313.987610,195.899094 312.396179,198.463455 309.471588,200.833679 
	C307.776062,202.207779 306.888428,203.421051 306.744049,206.058441 
	C306.561127,209.399216 303.229980,211.795944 300.706665,214.105911 
	C299.374207,215.325684 298.030365,216.637177 296.614136,217.667923 
	C291.602203,221.315613 288.624603,226.087692 286.177155,231.756439 
	C284.026215,236.738327 279.401154,239.644501 273.554352,239.838348 
	C271.921021,239.892517 270.220306,240.083740 268.142944,242.463348 
	C281.774170,249.575958 295.699127,249.305145 309.846710,246.330170 
	C310.864319,252.332291 300.613586,254.165100 306.376556,260.198029 
	C304.894165,262.214172 301.879944,262.248230 301.310333,263.713989 
	C299.404785,268.617310 297.244385,272.776611 291.617401,274.320160 
	C290.924438,274.510254 291.040314,277.648865 290.770660,279.494354 
	C290.244812,279.621765 289.748413,279.908966 289.336670,279.817017 
	C282.037842,278.187592 282.013916,278.164429 278.659393,284.818359 
	C277.649506,286.821564 275.973572,288.066620 274.478668,286.097931 
	C270.007416,280.209473 266.355591,282.391418 262.616333,286.725067 
	C262.445740,286.922791 261.994141,286.878052 261.453705,286.992920 
	C261.074219,286.644562 260.368530,286.300507 260.171539,285.768219 
	C258.471008,281.172791 255.982758,280.229767 251.977676,283.490936 
	C250.011017,285.092316 247.890518,285.333649 247.417450,281.461456 
M217.748322,212.668991 
	C219.850830,212.926758 221.514435,212.153580 219.961014,210.062317 
	C217.430008,206.654999 214.047455,204.220795 208.650742,204.326813 
	C210.845428,208.439346 213.639099,210.770950 217.748322,212.668991 
z"/>
<path fill="#000000" opacity="1.000000" stroke="none" 
	d="
M281.279114,301.965515 
	C282.288879,304.263428 282.337738,306.230225 281.483063,308.129669 
	C280.120728,311.157349 279.093201,314.184174 278.916565,317.598450 
	C278.771423,320.403320 276.997925,322.569519 274.028625,323.160461 
	C270.828949,323.797272 268.465393,323.307465 268.640472,319.093994 
	C268.832855,314.464447 268.567261,309.817139 268.702209,305.183411 
	C268.778595,302.562286 267.467682,299.058258 271.327759,298.055298 
	C275.207611,297.047241 278.979767,297.346954 281.279114,301.965515 
z"/>
<path fill="#000000" opacity="1.000000" stroke="none" 
	d="
M263.065033,319.361450 
	C263.204956,320.811127 262.948578,322.105713 261.819000,322.002289 
	C259.195435,321.762085 256.805328,321.153534 254.133255,322.666107 
	C252.717545,323.467529 251.791763,321.351562 251.777924,319.732147 
	C251.725586,313.607330 251.707596,307.482208 251.690292,301.357147 
	C251.681244,298.157867 253.694443,297.513916 256.344543,297.757446 
	C262.276978,298.302673 265.782135,305.260773 262.858276,311.563538 
	C261.577118,314.325195 261.579651,316.526459 263.065033,319.361450 
z"/>
<path fill="#000000" opacity="1.000000" stroke="none" 
	d="
M302.907043,318.686493 
	C300.721893,322.449951 297.717255,323.961914 293.880951,323.143738 
	C290.054230,322.327606 287.898560,319.392303 287.068726,315.868713 
	C286.108032,311.789612 286.266449,307.579987 288.014282,303.627625 
	C289.676910,299.867889 292.703979,297.982758 296.743713,298.204712 
	C300.534119,298.412994 302.687286,301.061951 303.895447,304.335693 
	C305.639801,309.062408 305.493469,313.794556 302.907043,318.686493 
M300.598175,310.437866 
	C299.920532,307.304871 300.024323,302.963470 295.395081,303.585114 
	C291.279602,304.137787 291.282593,308.182343 291.286133,311.519928 
	C291.289215,314.391296 291.586243,317.852570 295.017517,318.133728 
	C299.454315,318.497223 299.582825,314.256439 300.598175,310.437866 
z"/>
<path fill="#000000" opacity="1.000000" stroke="none" 
	d="
M219.778732,309.984985 
	C219.758636,306.664001 219.712296,303.831390 219.748276,300.999786 
	C219.769135,299.358276 220.279678,297.928345 222.280228,298.030396 
	C224.046875,298.120575 224.229813,299.547546 224.332642,300.926971 
	C224.357391,301.258789 224.325241,301.596130 224.365204,301.925354 
	C224.571716,303.626251 223.708496,306.223755 226.250000,306.390717 
	C228.843338,306.561096 228.419846,303.987213 228.540390,302.244843 
	C228.657074,300.558350 228.457642,298.640900 231.002609,298.873077 
	C233.313293,299.083862 233.305832,300.949432 233.281754,302.632233 
	C233.217407,307.130127 233.159042,311.630890 232.935257,316.122375 
	C232.850418,317.825104 233.260513,320.293518 230.682861,320.436737 
	C227.708694,320.602020 228.183273,317.980316 227.896378,316.086426 
	C227.778427,315.307648 227.547409,314.545959 227.175217,312.951355 
	C225.091415,315.654846 225.538010,318.163971 225.142792,320.424042 
	C224.897690,321.825562 224.455368,323.059479 222.751526,323.113312 
	C220.924362,323.171082 220.569427,321.760986 220.449356,320.432251 
	C220.150024,317.119843 219.998108,313.794128 219.778732,309.984985 
z"/>
<path fill="#000000" opacity="1.000000" stroke="none" 
	d="
M335.243591,322.905518 
	C332.262848,323.622375 330.727020,322.997070 330.657837,319.947510 
	C330.522736,313.991150 330.271027,308.034607 329.917633,302.087036 
	C329.699280,298.411377 331.580902,297.396332 334.797333,297.733063 
	C338.959076,298.168762 342.061493,300.262299 343.472961,304.174072 
	C345.334564,309.333191 344.621674,314.292542 341.184784,318.690155 
	C339.732605,320.548279 337.841766,321.889435 335.243591,322.905518 
M335.949219,314.746704 
	C339.439575,315.722321 339.376526,312.892242 339.599304,310.977295 
	C339.889130,308.485809 340.342041,305.575714 336.430237,304.444580 
	C334.518494,307.675018 335.015686,310.912079 335.949219,314.746704 
z"/>
<path fill="#000000" opacity="1.000000" stroke="none" 
	d="
M198.306183,304.883148 
	C199.240662,310.044403 200.199997,314.769531 200.995438,319.522125 
	C201.279114,321.217072 202.063599,323.495697 199.420471,324.014191 
	C197.097687,324.469879 196.975708,322.385040 196.529816,320.782837 
	C196.088913,319.198547 195.754852,317.412262 193.618454,317.209625 
	C191.564041,317.014709 190.726761,318.388062 190.009979,320.020172 
	C189.461975,321.267883 188.696091,322.484131 186.983459,321.656738 
	C185.690613,321.032166 185.528793,319.780060 185.865829,318.647339 
	C187.858688,311.949554 189.913727,305.269592 192.032303,298.610504 
	C192.407364,297.431549 193.408691,296.761505 194.771393,296.901398 
	C196.114792,297.039368 196.863251,297.824829 197.141220,299.090271 
	C197.533386,300.875702 197.892899,302.668304 198.306183,304.883148 
z"/>
<path fill="#000000" opacity="1.000000" stroke="none" 
	d="
M320.414703,301.153412 
	C323.724213,299.034821 325.087311,300.023346 324.297424,303.420563 
	C323.855438,305.321228 322.803406,307.112549 321.844910,308.853302 
	C320.268829,311.715637 320.080841,314.381104 321.940552,317.269867 
	C322.927338,318.802673 324.672577,320.755615 322.524384,322.578156 
	C320.236267,324.519409 319.162750,321.420349 317.133850,320.882599 
	C316.487366,321.349854 315.695312,321.906219 314.920837,322.486053 
	C313.808197,323.319061 312.767578,323.163055 311.770142,322.290253 
	C310.832062,321.469421 310.918152,320.354248 311.533020,319.593048 
	C316.063080,313.984955 312.795654,309.113129 310.355438,304.028748 
	C309.542328,302.334625 307.240967,299.984680 310.135986,298.427734 
	C313.192963,296.783722 313.240021,300.394073 314.557190,301.756561 
	C315.346619,302.573120 316.073730,303.449860 316.727905,304.185974 
	C318.893494,304.232849 319.257843,302.494629 320.414703,301.153412 
z"/>
<path fill="#000000" opacity="1.000000" stroke="none" 
	d="
M237.643250,304.146210 
	C237.695923,297.250458 238.542236,296.510529 244.334183,297.672638 
	C245.493759,297.905304 246.731171,297.949738 246.981537,299.411926 
	C247.201920,300.699036 246.608307,301.636627 245.460953,302.257690 
	C242.682022,303.761963 241.756882,305.522217 244.584396,307.947632 
	C246.273895,309.396881 246.398560,310.884155 244.619522,312.540375 
	C242.594025,314.426025 242.221176,316.649658 244.742081,318.358002 
	C246.219559,319.359222 247.890732,320.200043 246.844604,322.108368 
	C245.727646,324.145935 243.369492,323.672272 241.449631,323.638062 
	C239.511169,323.603485 237.800201,322.964294 237.776886,320.531006 
	C237.726059,315.228973 237.690323,309.926788 237.643250,304.146210 
z"/>
<path fill="#000000" opacity="1.000000" stroke="none" 
	d="
M180.499420,298.885681 
	C180.488174,299.885071 180.528488,300.879425 180.144394,301.086456 
	C176.411163,303.098785 174.438797,305.176758 178.856659,308.675568 
	C179.893219,309.496490 179.619171,311.116791 178.359406,312.160248 
	C175.230408,314.752045 175.084473,317.056396 179.134171,318.787537 
	C180.355057,319.309479 181.087601,320.047485 180.900146,321.407318 
	C180.700684,322.854309 179.567200,323.080109 178.363617,323.301788 
	C173.274826,324.239014 171.732834,323.022797 171.674057,317.821106 
	C171.623383,313.336426 171.657913,308.850891 171.645203,304.365723 
	C171.624619,297.102814 172.723831,296.362061 180.499420,298.885681 
z"/>
<path fill="#000000" opacity="1.000000" stroke="none" 
	d="
M157.660156,314.925171 
	C157.658463,310.303070 157.605057,306.166626 157.687302,302.032837 
	C157.718155,300.482269 157.210831,298.418518 159.450745,297.945099 
	C161.529739,297.505676 163.947983,296.989197 165.710068,298.288391 
	C167.493408,299.603302 166.687744,301.272797 164.826859,302.098297 
	C161.540833,303.556061 161.625504,305.461121 163.872528,307.785004 
	C163.986618,307.902954 164.159210,307.971924 164.252457,308.101257 
	C164.767761,308.815979 161.713303,322.498047 160.915894,322.807312 
	C159.067810,323.524139 158.003418,322.706360 157.826736,320.863068 
	C157.653656,319.057312 157.707901,317.229828 157.660156,314.925171 
z"/>
<path fill="#000000" opacity="1.000000" stroke="none" 
	d="
M209.124390,297.679565 
	C211.069946,297.736816 212.612747,297.588013 214.052582,297.905823 
	C216.249893,298.390808 216.930374,300.637115 215.320419,301.517853 
	C211.333160,303.699188 212.480209,307.135803 212.328430,310.282684 
	C212.184097,313.275391 212.354904,316.282257 212.254471,319.278473 
	C212.201218,320.866974 212.452469,322.946381 210.047501,323.041412 
	C207.548950,323.140106 207.769241,321.044800 207.724594,319.446869 
	C207.631531,316.116608 207.739166,312.780945 207.656448,309.450134 
	C207.588226,306.703186 207.771194,304.185455 205.626007,301.578766 
	C203.211380,298.644623 205.962311,297.719452 209.124390,297.679565 
z"/>
</svg>